<svg width="43" height="40" viewBox="0 0 43 40" fill="none" xmlns="http://www.w3.org/2000/svg">
<path fill-rule="evenodd" clip-rule="evenodd" d="M34.4583 7.98595V30.3471C34.4583 32.104 33.0208 33.5415 31.2638 33.5415H8.9027C7.14575 33.5415 5.70825 32.104 5.70825 30.3471V7.98595C5.70825 6.229 7.14575 4.7915 8.9027 4.7915H31.2638C33.0208 4.7915 34.4583 6.229 34.4583 7.98595ZM18.486 26.37L15.1319 22.329C14.7964 21.9297 14.1895 21.9457 13.886 22.3609L9.90895 27.4721C9.49367 27.9991 9.86103 28.7658 10.5319 28.7658H29.6826C30.3374 28.7658 30.7208 28.0151 30.3214 27.488L24.7152 20.013C24.3958 19.5818 23.7569 19.5818 23.4374 19.9971L18.486 26.37Z" fill="#676673"/>
<path d="M34.6666 38.3332C39.269 38.3332 42.9999 34.6022 42.9999 29.9998C42.9999 25.3975 39.269 21.6665 34.6666 21.6665C30.0642 21.6665 26.3333 25.3975 26.3333 29.9998C26.3333 34.6022 30.0642 38.3332 34.6666 38.3332Z" fill="#E40D3B"/>
<path d="M38.5951 28.9286H35.7379V26.0714C35.7379 25.7873 35.625 25.5147 35.4241 25.3138C35.2232 25.1129 34.9507 25 34.6665 25C34.3823 25 34.1098 25.1129 33.9089 25.3138C33.708 25.5147 33.5951 25.7873 33.5951 26.0714V28.9286H30.7379C30.4538 28.9286 30.1813 29.0415 29.9803 29.2424C29.7794 29.4433 29.6665 29.7158 29.6665 30C29.6665 30.2842 29.7794 30.5567 29.9803 30.7576C30.1813 30.9586 30.4538 31.0714 30.7379 31.0714H33.5951V33.9286C33.5951 34.2127 33.708 34.4853 33.9089 34.6862C34.1098 34.8871 34.3823 35 34.6665 35C34.9507 35 35.2232 34.8871 35.4241 34.6862C35.625 34.4853 35.7379 34.2127 35.7379 33.9286V31.0714H38.5951C38.8792 31.0714 39.1518 30.9586 39.3527 30.7576C39.5536 30.5567 39.6665 30.2842 39.6665 30C39.6665 29.7158 39.5536 29.4433 39.3527 29.2424C39.1518 29.0415 38.8792 28.9286 38.5951 28.9286Z" fill="white"/>
</svg>
